# xmcd CD database file
#
# Track frame offsets:
#	150
#	31107
#	55817
#	82867
#	117942
#
# Disc length: 2064 seconds
#
# Revision: 0
# Processed by: cddbd v1.5.2PL0 Copyright (c) Steve Scherf et al.
# Submitted via: CDex 1.51
#
DISCID=2f080e05
DTITLE=Hank Mobley - Hank Mobley (blue note 1568)
DYEAR=1957
DGENRE=Jazz
TTITLE0=mighty moe and joe
TTITLE1=falling in love with love
TTITLE2=bag's groove
TTITLE3=double exposure
TTITLE4=news
EXTD=
EXTT0=
EXTT1=
EXTT2=
EXTT3=
EXTT4=
PLAYORDER=
